# xmcd
#
# Track frame offsets:
#	150
#	15757
#	35177
#	52567
#	67933
#	81302
#	98107
#	114190
#	129135
#	147048
#	163539
#	180285
#	197367
#	215236
#	231180
#	249553
#	271670
#	289671
#	307397
#	321360
#
# Disc length: 4504 seconds
#
# Revision: 0
# Processed by: cddbd v1.5.2PL0 Copyright (c) Steve Scherf et al.
# Submitted via: EasyCDDAExtractor 15.3.0.1
#
DISCID=08119614
DTITLE=Gloria Trevi - Pelo Suelto Con... Mis Numero Uno
DYEAR=2017
DGENRE=Latin
TTITLE0=Pelo Suelto
TTITLE1=Hoy Me Ire De Casa
TTITLE2=En Medio De La Tempestad
TTITLE3=Que Voy A Hacer Sin El
TTITLE4=Fue Ese Tequila
TTITLE5=Dr. Psiquiatra
TTITLE6=La Papa Sin Catsup
TTITLE7=Zapatos Viejos
TTITLE8=El Ultimo Beso
TTITLE9=A Gatas
TTITLE10=Los Borregos
TTITLE11=Ella Que Nunca Fue Ella
TTITLE12=Que Bueno Que No Fui Lady Di
TTITLE13=Con Los Ojos Cerrados
TTITLE14=Me Siento Tan Sola
TTITLE15=Como Nace El Universo
TTITLE16=Tu Angel De La Guarda
TTITLE17=El Recuento De Los Daños
TTITLE18=Nieve De Mamey
TTITLE19=La Pasabas Bien Conmigo
EXTD=
EXTT0=
EXTT1=
EXTT2=
EXTT3=
EXTT4=
EXTT5=
EXTT6=
EXTT7=
EXTT8=
EXTT9=
EXTT10=
EXTT11=
EXTT12=
EXTT13=
EXTT14=
EXTT15=
EXTT16=
EXTT17=
EXTT18=
EXTT19=
PLAYORDER=
